<svg width="128" height="46" viewBox="0 0 128 46" fill="none" xmlns="http://www.w3.org/2000/svg">
<path d="M0 0L31.5765 7.56446V37.8297L0 45.3942V7.56446" fill="#11EBD2"/>
<path d="M29.6879 33.4291C28.8011 33.7989 27.9228 34.1372 27.0529 34.444C26.1872 34.7507 25.2858 35.0155 24.3486 35.2382C23.4115 35.461 22.426 35.6333 21.3922 35.7551C20.3584 35.877 19.2321 35.9379 18.0134 35.9379C16.5131 35.9379 15.0695 35.8161 13.6827 35.5723C12.3001 35.3244 11.01 34.9546 9.81225 34.4629C8.61874 33.9712 7.5366 33.3576 6.56583 32.6222C5.59086 31.891 4.75666 31.0379 4.06325 30.0629C3.36564 29.0921 2.82983 27.9974 2.45581 26.7786C2.08179 25.5599 1.89478 24.2235 1.89478 22.7695C1.89478 21.3196 2.08179 19.9832 2.45581 18.7603C2.82983 17.5416 3.36564 16.4469 4.06325 15.4761C4.75666 14.5053 5.59086 13.6522 6.56583 12.9168C7.5366 12.1855 8.61874 11.5741 9.81225 11.0824C11.01 10.5907 12.298 10.2209 13.6764 9.97293C15.0548 9.72499 16.5005 9.60101 18.0134 9.60101C19.2321 9.60101 20.3584 9.66405 21.3922 9.79013C22.426 9.912 23.4115 10.0843 24.3486 10.307C25.2858 10.5256 26.1872 10.7861 27.0529 11.0887C27.9228 11.3913 28.8011 11.7275 29.6879 12.0973V14.8646C28.9861 14.4234 28.2338 14.0052 27.4311 13.6102C26.6327 13.2151 25.7691 12.8705 24.8403 12.5764C23.9074 12.2822 22.9135 12.049 21.8587 11.8767C20.7996 11.7044 19.665 11.6182 18.4546 11.6182C16.0172 11.6182 13.9076 11.883 12.1257 12.4125C10.3397 12.942 8.86459 13.69 7.7005 14.6566C6.53641 15.6232 5.6749 16.7915 5.11598 18.1615C4.55284 19.5357 4.27128 21.0717 4.27128 22.7695C4.27128 24.4715 4.55284 26.0054 5.11598 27.3712C5.6749 28.737 6.53641 29.9032 7.7005 30.8698C8.86459 31.8363 10.3397 32.5802 12.1257 33.1013C13.9076 33.6266 16.0172 33.8892 18.4546 33.8892C19.665 33.8892 20.808 33.8031 21.8839 33.6308C22.9597 33.4585 23.9683 33.2252 24.9097 32.9311C25.851 32.6327 26.7188 32.2902 27.5131 31.9036C28.3074 31.5169 29.0323 31.1072 29.6879 30.6743V33.4291Z" fill="white"/>
<path d="M36.4066 35.44H34.0995V10.0675H36.4066V35.44Z" fill="white"/>
<path d="M65.7959 35.44H63.4887V18.691C63.4887 17.2874 63.3017 16.1317 62.9277 15.224C62.5537 14.3204 62.0179 13.6039 61.3203 13.0744C60.6226 12.5449 59.7758 12.1751 58.7799 11.9649C57.7839 11.759 56.6639 11.6561 55.42 11.6561C53.9785 11.6561 52.5665 11.8305 51.1839 12.1793C49.7971 12.5323 48.488 12.9756 47.2567 13.5093C46.0253 14.0431 44.8928 14.6377 43.859 15.2933C42.8251 15.9447 41.951 16.573 41.2366 17.1781V35.44H38.9294V10.0675H41.2366V14.5179C42.0981 13.9758 43.05 13.4064 44.0922 12.8096C45.1302 12.2129 46.2502 11.6645 47.4521 11.1644C48.6498 10.6643 49.9336 10.2545 51.3036 9.93514C52.6694 9.61575 54.1088 9.45605 55.6217 9.45605C57.3321 9.45605 58.8261 9.66198 60.1036 10.0738C61.377 10.4857 62.436 11.0698 63.2807 11.8263C64.1212 12.5869 64.7516 13.5051 65.1718 14.581C65.5879 15.6568 65.7959 16.8608 65.7959 18.193V35.44Z" fill="white"/>
<path d="M95.6689 31.4308V34.1098C94.6351 34.4292 93.6748 34.7024 92.7881 34.9293C91.9014 35.1605 91.0273 35.3454 90.1657 35.4841C89.3042 35.6269 88.428 35.732 87.5371 35.7992C86.642 35.8665 85.6607 35.9001 84.5933 35.9001C82.1054 35.9001 79.8571 35.5996 77.8483 34.9987C75.8437 34.3935 74.1354 33.5278 72.7234 32.4015C71.3155 31.2753 70.2292 29.9116 69.4643 28.3104C68.7037 26.7093 68.3234 24.9127 68.3234 22.9207C68.3234 20.9876 68.689 19.2142 69.4202 17.6004C70.1514 15.9867 71.1768 14.6019 72.4964 13.4463C73.8118 12.2864 75.3877 11.387 77.2242 10.7483C79.0565 10.1095 81.08 9.7901 83.2947 9.7901C85.5977 9.7901 87.6485 10.0969 89.4471 10.7104C91.2458 11.3282 92.7608 12.2086 93.9921 13.3517C95.2234 14.499 96.1585 15.8879 96.7973 17.5185C97.436 19.149 97.7554 20.9855 97.7554 23.0279V23.6015H70.6999C70.8385 25.1775 71.2336 26.6 71.885 27.8692C72.5363 29.1383 73.463 30.2162 74.6649 31.103C75.8668 31.9855 77.344 32.6642 79.0964 33.1391C80.8489 33.614 82.8955 33.8514 85.2362 33.8514C86.2322 33.8514 87.2429 33.7842 88.2683 33.6497C89.2895 33.5152 90.2666 33.3324 91.1996 33.1012C92.1367 32.8743 92.994 32.6159 93.7715 32.3259C94.5447 32.0359 95.1772 31.7375 95.6689 31.4308ZM70.6999 21.5907H95.4861C95.402 20.2963 95.1121 19.0608 94.6162 17.8841C94.1245 16.7116 93.389 15.6757 92.4099 14.7763C91.4307 13.877 90.1868 13.1626 88.6781 12.6331C87.1736 12.1036 85.3686 11.8388 83.2632 11.8388C81.2796 11.8388 79.5419 12.1036 78.05 12.6331C76.5623 13.1626 75.3016 13.8728 74.2678 14.7637C73.234 15.6589 72.4208 16.6927 71.8282 17.8652C71.2399 19.0419 70.8638 20.2837 70.6999 21.5907Z" fill="white"/>
<path d="M125.1 35.44L114.132 23.9735L103.195 35.44H100.283L112.688 22.4228L100.888 10.0675H103.806L114.132 20.9225L124.489 10.0675H127.407L115.607 22.4228L128 35.44H125.1Z" fill="white"/>
</svg>
