<svg width="129" height="53" viewBox="0 0 129 53" fill="none" xmlns="http://www.w3.org/2000/svg">
<path d="M15.5451 41.8854C24.1381 41.8854 28.8016 36.8333 29.7948 30.5721H23.879C22.8858 34.3288 19.82 36.7901 15.3724 36.7901C9.45661 36.7901 5.69987 31.5652 5.69987 25.9085C5.69987 19.9496 9.88841 15.9337 15.286 15.9337C20.4245 15.9337 23.1018 18.8269 23.9654 22.4109H29.7948C28.9312 14.9838 23.1018 10.7952 14.8974 10.7952C5.69987 10.7952 0 17.7473 0 26.3403C0 34.8901 5.22488 41.8854 15.5451 41.8854Z" fill="white"/>
<path d="M38.5461 15.8905V11.227H32.6735V15.8905H38.5461ZM32.6735 41.4536H38.5029V19.8632H32.6735V41.4536Z" fill="white"/>
<path d="M62.1084 41.4536H67.8083V11.227H62.238V32.0402H62.0221L47.4269 11.227H41.4248L62.1084 41.4536ZM41.6839 41.4536H47.3406V26.6426L41.6839 18.5677V41.4536Z" fill="white"/>
<path d="M93.0547 16.8837V11.227H70.687V16.8837H93.0547ZM93.0547 29.0175V23.6631H70.687V29.0175H93.0547ZM70.687 41.4536H93.0547V35.7537H70.687V41.4536Z" fill="white"/>
<path d="M95.9335 8.63617L128.06 0V52.6806L95.9335 44.0445V8.63617Z" fill="url(#paint0_linear_71_28)"/>
<path d="M105.347 11.227H99.0857L108.888 25.7358V25.8221L98.0925 41.4536H104.656L111.954 30.2266H112.126L119.553 41.4536H125.901L115.451 26.1244V26.038L124.951 11.227H118.776L112.429 21.5904H112.256L105.347 11.227Z" fill="white"/>
<defs>
<linearGradient id="paint0_linear_71_28" x1="95.9335" y1="52.6806" x2="95.9335" y2="0" gradientUnits="userSpaceOnUse">
<stop stop-color="#00C9FF"/>
<stop offset="1" stop-color="#92FE9D"/>
</linearGradient>
</defs>
</svg>
