<svg width="133" height="34" viewBox="0 0 133 34" fill="none" xmlns="http://www.w3.org/2000/svg">
<g clip-path="url(#clip0_36_159)">
<path d="M0 0H12.2267V4.37345H4.4194V21.4969H7.88734V25.8791H4.4194V30.0939H12.2267V34.4761H0V0ZM14.6187 17.2381C14.6187 12.4825 16.3141 8.4177 19.705 5.04357C23.1137 1.68119 27.373 0 32.4831 0V4.37345C28.5942 4.37345 25.3782 5.62846 22.8351 8.13849C20.3038 10.6661 19.0381 13.6993 19.0381 17.2381C19.0381 20.7709 20.3038 23.8012 22.8351 26.3288C25.3782 28.8389 28.5942 30.0939 32.4831 30.0939V34.4761C27.373 34.4761 23.1137 32.7949 19.705 29.4326C16.3141 26.0526 14.6187 21.9877 14.6187 17.2381ZM34.8661 0H39.2856V30.0939H47.0929V34.4761H34.8661V0ZM49.4849 34.4761V0H53.9043V34.4761H49.4849ZM60.7068 4.42635V21.4528C62.663 21.3705 64.4385 20.5005 66.0332 18.8428C67.6278 17.1852 68.4252 15.213 68.4252 12.9263C68.4252 10.6515 67.6278 8.68517 66.0332 7.02749C64.4385 5.36981 62.663 4.50277 60.7068 4.42635ZM60.7068 0V0.0176353C63.9079 0.129323 66.7268 1.44018 69.1632 3.95021C71.6293 6.46023 72.8623 9.45228 72.8623 12.9263C72.8623 16.4122 71.6293 19.4101 69.1632 21.9201C66.7268 24.4302 63.9079 25.741 60.7068 25.8527V34.4761H56.2874V0H60.7068ZM85.0446 4.37345C83.5626 4.37345 82.2969 4.89661 81.2476 5.94295C80.1924 6.9834 79.6648 8.23842 79.6648 9.70799C79.6648 11.1717 80.1924 12.4267 81.2476 13.473C82.2969 14.5135 83.5626 15.0337 85.0446 15.0337C87.7478 15.0337 90.0538 15.9889 91.9627 17.8994C93.8893 19.7922 94.8526 22.0818 94.8526 24.7682C94.8526 27.431 93.8893 29.7177 91.9627 31.6281C90.0538 33.5268 87.7478 34.4761 85.0446 34.4761C82.3532 34.4761 80.0442 33.5268 78.1176 31.6281C76.2088 29.7177 75.2543 27.2723 75.2543 24.292H79.6648C79.6648 26.0731 80.1924 27.4869 81.2476 28.5332C82.2969 29.5736 83.5626 30.0939 85.0446 30.0939C86.5207 30.0939 87.7863 29.5736 88.8416 28.5332C89.8908 27.4869 90.4155 26.2318 90.4155 24.7682C90.4155 23.2986 89.8908 22.0436 88.8416 21.0031C87.7863 19.9568 86.5207 19.4336 85.0446 19.4336C82.3532 19.4336 80.0442 18.4784 78.1176 16.5679C76.2088 14.6751 75.2543 12.3885 75.2543 9.70799C75.2543 7.03925 76.2088 4.74965 78.1176 2.83921C80.0442 0.946405 82.3532 0 85.0446 0C87.7478 0 90.0538 0.946405 91.9627 2.83921C93.8893 4.74965 94.8526 7.19502 94.8526 10.1753H90.4155C90.4155 8.39419 89.8908 6.9834 88.8416 5.94295C87.7863 4.89661 86.5207 4.37345 85.0446 4.37345ZM101.664 21.4969H107.657V7.3361C107.657 6.53078 107.364 5.83714 106.777 5.25519C106.184 4.66736 105.473 4.37345 104.643 4.37345C103.837 4.37345 103.137 4.66736 102.544 5.25519C101.957 5.83714 101.664 6.53078 101.664 7.3361V21.4969ZM104.643 0C106.7 0 108.452 0.717153 109.898 2.15145C111.351 3.58576 112.077 5.31397 112.077 7.3361V34.4761H107.657V25.8791H101.664V34.4761H97.2446V7.3361C97.2446 5.31397 97.9679 3.58576 99.4143 2.15145C100.867 0.717153 102.61 0 104.643 0ZM118.879 4.42635V21.4528C120.836 21.3705 122.611 20.5005 124.206 18.8428C125.8 17.1852 126.598 15.213 126.598 12.9263C126.598 10.6515 125.8 8.68517 124.206 7.02749C122.611 5.36981 120.836 4.50277 118.879 4.42635ZM131.035 12.9263C131.035 15.26 130.439 17.4379 129.248 19.4601C128.097 21.3999 126.775 22.8048 125.282 23.6748C126.716 24.5095 128.006 25.8586 129.15 27.722C130.312 29.6501 130.94 31.9015 131.035 34.4761H126.615C126.491 31.9779 125.64 29.9499 124.063 28.3921C122.486 26.8285 120.758 25.9997 118.879 25.9056V34.4761H114.46V0H118.879V0.0176353C122.08 0.129323 124.899 1.44018 127.336 3.95021C129.802 6.46023 131.035 9.45228 131.035 12.9263Z" fill="#11EBD2"/>
</g>
<defs>
<clipPath id="clip0_36_159">
<rect width="133" height="34" fill="white"/>
</clipPath>
</defs>
</svg>
