<svg width="129" height="34" viewBox="0 0 129 34" fill="none" xmlns="http://www.w3.org/2000/svg">
<g clip-path="url(#clip0_57_634)">
<path d="M0 0H11.859V4.37345H4.28649V21.4969H7.65013V25.8791H4.28649V30.0939H11.859V34.4761H0V0ZM14.179 17.2381C14.179 12.4825 15.8235 8.4177 19.1124 5.04357C22.4185 1.68119 26.5498 0 31.5061 0V4.37345C27.7342 4.37345 24.615 5.62846 22.1483 8.13849C19.6931 10.6661 18.4655 13.6993 18.4655 17.2381C18.4655 20.7709 19.6931 23.8012 22.1483 26.3288C24.615 28.8389 27.7342 30.0939 31.5061 30.0939V34.4761C26.5498 34.4761 22.4185 32.7949 19.1124 29.4326C15.8235 26.0526 14.179 21.9877 14.179 17.2381ZM33.8175 0H38.104V30.0939H45.6765V34.4761H33.8175V0ZM47.9966 34.4761V0H52.2831V34.4761H47.9966ZM58.881 4.42635V21.4528C60.7784 21.3705 62.5005 20.5005 64.0472 18.8428C65.5939 17.1852 66.3672 15.213 66.3672 12.9263C66.3672 10.6515 65.5939 8.68517 64.0472 7.02749C62.5005 5.36981 60.7784 4.50277 58.881 4.42635ZM58.881 0V0.0176353C61.9859 0.129323 64.7199 1.44018 67.0831 3.95021C69.475 6.46023 70.671 9.45228 70.671 12.9263C70.671 16.4122 69.475 19.4101 67.0831 21.9201C64.7199 24.4302 61.9859 25.741 58.881 25.8527V34.4761H54.5945V0H58.881ZM82.4869 4.37345C81.0494 4.37345 79.8218 4.89661 78.8041 5.94295C77.7806 6.9834 77.2689 8.23842 77.2689 9.70799C77.2689 11.1717 77.7806 12.4267 78.8041 13.473C79.8218 14.5135 81.0494 15.0337 82.4869 15.0337C85.1088 15.0337 87.3455 15.9889 89.1969 17.8994C91.0656 19.7922 91.9999 22.0818 91.9999 24.7682C91.9999 27.431 91.0656 29.7177 89.1969 31.6281C87.3455 33.5268 85.1088 34.4761 82.4869 34.4761C79.8764 34.4761 77.6369 33.5268 75.7682 31.6281C73.9168 29.7177 72.991 27.2723 72.991 24.292H77.2689C77.2689 26.0731 77.7806 27.4869 78.8041 28.5332C79.8218 29.5736 81.0494 30.0939 82.4869 30.0939C83.9186 30.0939 85.1462 29.5736 86.1696 28.5332C87.1873 27.4869 87.6962 26.2318 87.6962 24.7682C87.6962 23.2986 87.1873 22.0436 86.1696 21.0031C85.1462 19.9568 83.9186 19.4336 82.4869 19.4336C79.8764 19.4336 77.6369 18.4784 75.7682 16.5679C73.9168 14.6751 72.991 12.3885 72.991 9.70799C72.991 7.03925 73.9168 4.74965 75.7682 2.83921C77.6369 0.946405 79.8764 0 82.4869 0C85.1088 0 87.3455 0.946405 89.1969 2.83921C91.0656 4.74965 91.9999 7.19502 91.9999 10.1753H87.6962C87.6962 8.39419 87.1873 6.9834 86.1696 5.94295C85.1462 4.89661 83.9186 4.37345 82.4869 4.37345ZM98.6065 21.4969H104.42V7.3361C104.42 6.53078 104.135 5.83714 103.566 5.25519C102.991 4.66736 102.301 4.37345 101.496 4.37345C100.714 4.37345 100.035 4.66736 99.4603 5.25519C98.8911 5.83714 98.6065 6.53078 98.6065 7.3361V21.4969ZM101.496 0C103.491 0 105.19 0.717153 106.593 2.15145C108.002 3.58576 108.706 5.31397 108.706 7.3361V34.4761H104.42V25.8791H98.6065V34.4761H94.32V7.3361C94.32 5.31397 95.0215 3.58576 96.4244 2.15145C97.8331 0.717153 99.5236 0 101.496 0ZM115.304 4.42635V21.4528C117.201 21.3705 118.923 20.5005 120.47 18.8428C122.017 17.1852 122.79 15.213 122.79 12.9263C122.79 10.6515 122.017 8.68517 120.47 7.02749C118.923 5.36981 117.201 4.50277 115.304 4.42635ZM127.094 12.9263C127.094 15.26 126.516 17.4379 125.36 19.4601C124.245 21.3999 122.963 22.8048 121.514 23.6748C122.905 24.5095 124.156 25.8586 125.265 27.722C126.392 29.6501 127.002 31.9015 127.094 34.4761H122.807C122.687 31.9779 121.862 29.9499 120.332 28.3921C118.803 26.8285 117.127 25.9997 115.304 25.9056V34.4761H111.017V0H115.304V0.0176353C118.409 0.129323 121.143 1.44018 123.506 3.95021C125.898 6.46023 127.094 9.45228 127.094 12.9263Z" fill="#11EBD2"/>
</g>
<defs>
<clipPath id="clip0_57_634">
<rect width="129" height="34" fill="white"/>
</clipPath>
</defs>
</svg>
